<mxfile host="app.diagrams.net" agent="Mozilla/5.0 (Macintosh; Intel Mac OS X 10_15_7) AppleWebKit/605.1.15 (KHTML, like Gecko) Version/17.2.1 Safari/605.1.15" version="24.7.17">
  <diagram name="Page-1" id="p4_DruGGBQYjJsdUfq0t">
    <mxGraphModel grid="1" page="1" gridSize="10" guides="1" tooltips="1" connect="1" arrows="1" fold="1" pageScale="1" pageWidth="827" pageHeight="1169" math="0" shadow="0">
      <root>
        <mxCell id="0" />
        <mxCell id="1" parent="0" />
        <mxCell id="UnOarBbT92LB2DLwOyzl-1" value="Race" style="swimlane;fontStyle=0;childLayout=stackLayout;horizontal=1;startSize=26;fillColor=none;horizontalStack=0;resizeParent=1;resizeParentMax=0;resizeLast=0;collapsible=1;marginBottom=0;whiteSpace=wrap;html=1;" vertex="1" parent="1">
          <mxGeometry x="520" y="40" width="140" height="156" as="geometry" />
        </mxCell>
        <mxCell id="UnOarBbT92LB2DLwOyzl-2" value="&lt;u&gt;raceID&lt;/u&gt;" style="text;strokeColor=none;fillColor=none;align=left;verticalAlign=top;spacingLeft=4;spacingRight=4;overflow=hidden;rotatable=0;points=[[0,0.5],[1,0.5]];portConstraint=eastwest;whiteSpace=wrap;html=1;" vertex="1" parent="UnOarBbT92LB2DLwOyzl-1">
          <mxGeometry y="26" width="140" height="26" as="geometry" />
        </mxCell>
        <mxCell id="UnOarBbT92LB2DLwOyzl-3" value="Year" style="text;strokeColor=none;fillColor=none;align=left;verticalAlign=top;spacingLeft=4;spacingRight=4;overflow=hidden;rotatable=0;points=[[0,0.5],[1,0.5]];portConstraint=eastwest;whiteSpace=wrap;html=1;" vertex="1" parent="UnOarBbT92LB2DLwOyzl-1">
          <mxGeometry y="52" width="140" height="26" as="geometry" />
        </mxCell>
        <mxCell id="UnOarBbT92LB2DLwOyzl-4" value="Name" style="text;strokeColor=none;fillColor=none;align=left;verticalAlign=top;spacingLeft=4;spacingRight=4;overflow=hidden;rotatable=0;points=[[0,0.5],[1,0.5]];portConstraint=eastwest;whiteSpace=wrap;html=1;" vertex="1" parent="UnOarBbT92LB2DLwOyzl-1">
          <mxGeometry y="78" width="140" height="26" as="geometry" />
        </mxCell>
        <mxCell id="UnOarBbT92LB2DLwOyzl-47" value="circuitID" style="text;strokeColor=none;fillColor=none;align=left;verticalAlign=top;spacingLeft=4;spacingRight=4;overflow=hidden;rotatable=0;points=[[0,0.5],[1,0.5]];portConstraint=eastwest;whiteSpace=wrap;html=1;" vertex="1" parent="UnOarBbT92LB2DLwOyzl-1">
          <mxGeometry y="104" width="140" height="26" as="geometry" />
        </mxCell>
        <mxCell id="UnOarBbT92LB2DLwOyzl-65" value="&lt;div&gt;TotalLaps&lt;/div&gt;" style="text;strokeColor=none;fillColor=none;align=left;verticalAlign=top;spacingLeft=4;spacingRight=4;overflow=hidden;rotatable=0;points=[[0,0.5],[1,0.5]];portConstraint=eastwest;whiteSpace=wrap;html=1;" vertex="1" parent="UnOarBbT92LB2DLwOyzl-1">
          <mxGeometry y="130" width="140" height="26" as="geometry" />
        </mxCell>
        <mxCell id="UnOarBbT92LB2DLwOyzl-5" value="Circuit" style="swimlane;fontStyle=0;childLayout=stackLayout;horizontal=1;startSize=26;fillColor=none;horizontalStack=0;resizeParent=1;resizeParentMax=0;resizeLast=0;collapsible=1;marginBottom=0;whiteSpace=wrap;html=1;" vertex="1" parent="1">
          <mxGeometry x="200" y="40" width="160" height="142" as="geometry">
            <mxRectangle x="40" y="50" width="70" height="30" as="alternateBounds" />
          </mxGeometry>
        </mxCell>
        <mxCell id="UnOarBbT92LB2DLwOyzl-6" value="&lt;u&gt;circuitID&lt;/u&gt;&lt;div&gt;&lt;u&gt;&lt;br&gt;&lt;/u&gt;&lt;div&gt;&lt;br&gt;&lt;/div&gt;&lt;/div&gt;" style="text;strokeColor=none;fillColor=none;align=left;verticalAlign=top;spacingLeft=4;spacingRight=4;overflow=hidden;rotatable=0;points=[[0,0.5],[1,0.5]];portConstraint=eastwest;whiteSpace=wrap;html=1;" vertex="1" parent="UnOarBbT92LB2DLwOyzl-5">
          <mxGeometry y="26" width="160" height="26" as="geometry" />
        </mxCell>
        <mxCell id="UnOarBbT92LB2DLwOyzl-7" value="&lt;div&gt;Name&lt;/div&gt;&lt;div&gt;&lt;br&gt;&lt;/div&gt;" style="text;strokeColor=none;fillColor=none;align=left;verticalAlign=top;spacingLeft=4;spacingRight=4;overflow=hidden;rotatable=0;points=[[0,0.5],[1,0.5]];portConstraint=eastwest;whiteSpace=wrap;html=1;" vertex="1" parent="UnOarBbT92LB2DLwOyzl-5">
          <mxGeometry y="52" width="160" height="26" as="geometry" />
        </mxCell>
        <mxCell id="UnOarBbT92LB2DLwOyzl-8" value="&lt;div&gt;Location&lt;/div&gt;" style="text;strokeColor=none;fillColor=none;align=left;verticalAlign=top;spacingLeft=4;spacingRight=4;overflow=hidden;rotatable=0;points=[[0,0.5],[1,0.5]];portConstraint=eastwest;whiteSpace=wrap;html=1;" vertex="1" parent="UnOarBbT92LB2DLwOyzl-5">
          <mxGeometry y="78" width="160" height="32" as="geometry" />
        </mxCell>
        <mxCell id="UnOarBbT92LB2DLwOyzl-46" value="Country" style="text;strokeColor=none;fillColor=none;align=left;verticalAlign=top;spacingLeft=4;spacingRight=4;overflow=hidden;rotatable=0;points=[[0,0.5],[1,0.5]];portConstraint=eastwest;whiteSpace=wrap;html=1;" vertex="1" parent="UnOarBbT92LB2DLwOyzl-5">
          <mxGeometry y="110" width="160" height="32" as="geometry" />
        </mxCell>
        <mxCell id="UnOarBbT92LB2DLwOyzl-10" value="Driver" style="swimlane;fontStyle=0;childLayout=stackLayout;horizontal=1;startSize=26;fillColor=none;horizontalStack=0;resizeParent=1;resizeParentMax=0;resizeLast=0;collapsible=1;marginBottom=0;whiteSpace=wrap;html=1;" vertex="1" parent="1">
          <mxGeometry x="450" y="567" width="140" height="130" as="geometry" />
        </mxCell>
        <mxCell id="UnOarBbT92LB2DLwOyzl-11" value="&lt;u&gt;driverID&lt;/u&gt;" style="text;strokeColor=none;fillColor=none;align=left;verticalAlign=top;spacingLeft=4;spacingRight=4;overflow=hidden;rotatable=0;points=[[0,0.5],[1,0.5]];portConstraint=eastwest;whiteSpace=wrap;html=1;" vertex="1" parent="UnOarBbT92LB2DLwOyzl-10">
          <mxGeometry y="26" width="140" height="26" as="geometry" />
        </mxCell>
        <mxCell id="UnOarBbT92LB2DLwOyzl-12" value="FirstName&lt;div&gt;&lt;br&gt;&lt;/div&gt;" style="text;strokeColor=none;fillColor=none;align=left;verticalAlign=top;spacingLeft=4;spacingRight=4;overflow=hidden;rotatable=0;points=[[0,0.5],[1,0.5]];portConstraint=eastwest;whiteSpace=wrap;html=1;" vertex="1" parent="UnOarBbT92LB2DLwOyzl-10">
          <mxGeometry y="52" width="140" height="26" as="geometry" />
        </mxCell>
        <mxCell id="UnOarBbT92LB2DLwOyzl-13" value="LastName&lt;div&gt;&lt;br&gt;&lt;/div&gt;" style="text;strokeColor=none;fillColor=none;align=left;verticalAlign=top;spacingLeft=4;spacingRight=4;overflow=hidden;rotatable=0;points=[[0,0.5],[1,0.5]];portConstraint=eastwest;whiteSpace=wrap;html=1;" vertex="1" parent="UnOarBbT92LB2DLwOyzl-10">
          <mxGeometry y="78" width="140" height="26" as="geometry" />
        </mxCell>
        <mxCell id="UnOarBbT92LB2DLwOyzl-50" value="DriverNationality" style="text;strokeColor=none;fillColor=none;align=left;verticalAlign=top;spacingLeft=4;spacingRight=4;overflow=hidden;rotatable=0;points=[[0,0.5],[1,0.5]];portConstraint=eastwest;whiteSpace=wrap;html=1;" vertex="1" parent="UnOarBbT92LB2DLwOyzl-10">
          <mxGeometry y="104" width="140" height="26" as="geometry" />
        </mxCell>
        <mxCell id="UnOarBbT92LB2DLwOyzl-14" value="Constructor" style="swimlane;fontStyle=0;childLayout=stackLayout;horizontal=1;startSize=26;fillColor=none;horizontalStack=0;resizeParent=1;resizeParentMax=0;resizeLast=0;collapsible=1;marginBottom=0;whiteSpace=wrap;html=1;" vertex="1" parent="1">
          <mxGeometry x="220" y="567" width="140" height="104" as="geometry" />
        </mxCell>
        <mxCell id="UnOarBbT92LB2DLwOyzl-15" value="&lt;u&gt;constructorID&lt;/u&gt;" style="text;strokeColor=none;fillColor=none;align=left;verticalAlign=top;spacingLeft=4;spacingRight=4;overflow=hidden;rotatable=0;points=[[0,0.5],[1,0.5]];portConstraint=eastwest;whiteSpace=wrap;html=1;" vertex="1" parent="UnOarBbT92LB2DLwOyzl-14">
          <mxGeometry y="26" width="140" height="26" as="geometry" />
        </mxCell>
        <mxCell id="UnOarBbT92LB2DLwOyzl-16" value="Name&lt;div&gt;&lt;br&gt;&lt;/div&gt;" style="text;strokeColor=none;fillColor=none;align=left;verticalAlign=top;spacingLeft=4;spacingRight=4;overflow=hidden;rotatable=0;points=[[0,0.5],[1,0.5]];portConstraint=eastwest;whiteSpace=wrap;html=1;" vertex="1" parent="UnOarBbT92LB2DLwOyzl-14">
          <mxGeometry y="52" width="140" height="26" as="geometry" />
        </mxCell>
        <mxCell id="UnOarBbT92LB2DLwOyzl-17" value="&lt;div&gt;ConstructorNationality&lt;/div&gt;" style="text;strokeColor=none;fillColor=none;align=left;verticalAlign=top;spacingLeft=4;spacingRight=4;overflow=hidden;rotatable=0;points=[[0,0.5],[1,0.5]];portConstraint=eastwest;whiteSpace=wrap;html=1;" vertex="1" parent="UnOarBbT92LB2DLwOyzl-14">
          <mxGeometry y="78" width="140" height="26" as="geometry" />
        </mxCell>
        <mxCell id="UnOarBbT92LB2DLwOyzl-18" value="Qualifying Results" style="swimlane;fontStyle=0;childLayout=stackLayout;horizontal=1;startSize=26;fillColor=none;horizontalStack=0;resizeParent=1;resizeParentMax=0;resizeLast=0;collapsible=1;marginBottom=0;whiteSpace=wrap;html=1;" vertex="1" parent="1">
          <mxGeometry x="20" y="250" width="140" height="234" as="geometry" />
        </mxCell>
        <mxCell id="UnOarBbT92LB2DLwOyzl-20" value="&lt;u&gt;qualifyID&lt;/u&gt;&lt;div&gt;&lt;br&gt;&lt;/div&gt;" style="text;strokeColor=none;fillColor=none;align=left;verticalAlign=top;spacingLeft=4;spacingRight=4;overflow=hidden;rotatable=0;points=[[0,0.5],[1,0.5]];portConstraint=eastwest;whiteSpace=wrap;html=1;" vertex="1" parent="UnOarBbT92LB2DLwOyzl-18">
          <mxGeometry y="26" width="140" height="26" as="geometry" />
        </mxCell>
        <mxCell id="UnOarBbT92LB2DLwOyzl-21" value="raceID&lt;div&gt;&lt;br&gt;&lt;/div&gt;" style="text;strokeColor=none;fillColor=none;align=left;verticalAlign=top;spacingLeft=4;spacingRight=4;overflow=hidden;rotatable=0;points=[[0,0.5],[1,0.5]];portConstraint=eastwest;whiteSpace=wrap;html=1;" vertex="1" parent="UnOarBbT92LB2DLwOyzl-18">
          <mxGeometry y="52" width="140" height="26" as="geometry" />
        </mxCell>
        <mxCell id="UnOarBbT92LB2DLwOyzl-51" value="&lt;div&gt;driverID&lt;/div&gt;" style="text;strokeColor=none;fillColor=none;align=left;verticalAlign=top;spacingLeft=4;spacingRight=4;overflow=hidden;rotatable=0;points=[[0,0.5],[1,0.5]];portConstraint=eastwest;whiteSpace=wrap;html=1;" vertex="1" parent="UnOarBbT92LB2DLwOyzl-18">
          <mxGeometry y="78" width="140" height="26" as="geometry" />
        </mxCell>
        <mxCell id="UnOarBbT92LB2DLwOyzl-53" value="constructorID" style="text;strokeColor=none;fillColor=none;align=left;verticalAlign=top;spacingLeft=4;spacingRight=4;overflow=hidden;rotatable=0;points=[[0,0.5],[1,0.5]];portConstraint=eastwest;whiteSpace=wrap;html=1;" vertex="1" parent="UnOarBbT92LB2DLwOyzl-18">
          <mxGeometry y="104" width="140" height="26" as="geometry" />
        </mxCell>
        <mxCell id="UnOarBbT92LB2DLwOyzl-55" value="Q1Time" style="text;strokeColor=none;fillColor=none;align=left;verticalAlign=top;spacingLeft=4;spacingRight=4;overflow=hidden;rotatable=0;points=[[0,0.5],[1,0.5]];portConstraint=eastwest;whiteSpace=wrap;html=1;" vertex="1" parent="UnOarBbT92LB2DLwOyzl-18">
          <mxGeometry y="130" width="140" height="26" as="geometry" />
        </mxCell>
        <mxCell id="UnOarBbT92LB2DLwOyzl-56" value="Q2Time&lt;div&gt;&lt;br&gt;&lt;/div&gt;" style="text;strokeColor=none;fillColor=none;align=left;verticalAlign=top;spacingLeft=4;spacingRight=4;overflow=hidden;rotatable=0;points=[[0,0.5],[1,0.5]];portConstraint=eastwest;whiteSpace=wrap;html=1;" vertex="1" parent="UnOarBbT92LB2DLwOyzl-18">
          <mxGeometry y="156" width="140" height="26" as="geometry" />
        </mxCell>
        <mxCell id="UnOarBbT92LB2DLwOyzl-57" value="&lt;div&gt;Q3Time&lt;/div&gt;" style="text;strokeColor=none;fillColor=none;align=left;verticalAlign=top;spacingLeft=4;spacingRight=4;overflow=hidden;rotatable=0;points=[[0,0.5],[1,0.5]];portConstraint=eastwest;whiteSpace=wrap;html=1;" vertex="1" parent="UnOarBbT92LB2DLwOyzl-18">
          <mxGeometry y="182" width="140" height="26" as="geometry" />
        </mxCell>
        <mxCell id="UnOarBbT92LB2DLwOyzl-60" value="GridPosition" style="text;strokeColor=none;fillColor=none;align=left;verticalAlign=top;spacingLeft=4;spacingRight=4;overflow=hidden;rotatable=0;points=[[0,0.5],[1,0.5]];portConstraint=eastwest;whiteSpace=wrap;html=1;" vertex="1" parent="UnOarBbT92LB2DLwOyzl-18">
          <mxGeometry y="208" width="140" height="26" as="geometry" />
        </mxCell>
        <mxCell id="UnOarBbT92LB2DLwOyzl-22" value="Race Results" style="swimlane;fontStyle=0;childLayout=stackLayout;horizontal=1;startSize=26;fillColor=none;horizontalStack=0;resizeParent=1;resizeParentMax=0;resizeLast=0;collapsible=1;marginBottom=0;whiteSpace=wrap;html=1;" vertex="1" parent="1">
          <mxGeometry x="370" y="260" width="140" height="234" as="geometry" />
        </mxCell>
        <mxCell id="UnOarBbT92LB2DLwOyzl-23" value="&lt;u&gt;resultID&lt;/u&gt;&lt;div&gt;&lt;br&gt;&lt;/div&gt;" style="text;strokeColor=none;fillColor=none;align=left;verticalAlign=top;spacingLeft=4;spacingRight=4;overflow=hidden;rotatable=0;points=[[0,0.5],[1,0.5]];portConstraint=eastwest;whiteSpace=wrap;html=1;" vertex="1" parent="UnOarBbT92LB2DLwOyzl-22">
          <mxGeometry y="26" width="140" height="26" as="geometry" />
        </mxCell>
        <mxCell id="UnOarBbT92LB2DLwOyzl-24" value="raceID" style="text;strokeColor=none;fillColor=none;align=left;verticalAlign=top;spacingLeft=4;spacingRight=4;overflow=hidden;rotatable=0;points=[[0,0.5],[1,0.5]];portConstraint=eastwest;whiteSpace=wrap;html=1;" vertex="1" parent="UnOarBbT92LB2DLwOyzl-22">
          <mxGeometry y="52" width="140" height="26" as="geometry" />
        </mxCell>
        <mxCell id="UnOarBbT92LB2DLwOyzl-25" value="driverID" style="text;strokeColor=none;fillColor=none;align=left;verticalAlign=top;spacingLeft=4;spacingRight=4;overflow=hidden;rotatable=0;points=[[0,0.5],[1,0.5]];portConstraint=eastwest;whiteSpace=wrap;html=1;" vertex="1" parent="UnOarBbT92LB2DLwOyzl-22">
          <mxGeometry y="78" width="140" height="26" as="geometry" />
        </mxCell>
        <mxCell id="UnOarBbT92LB2DLwOyzl-58" value="constructorID&lt;div&gt;&lt;br&gt;&lt;/div&gt;" style="text;strokeColor=none;fillColor=none;align=left;verticalAlign=top;spacingLeft=4;spacingRight=4;overflow=hidden;rotatable=0;points=[[0,0.5],[1,0.5]];portConstraint=eastwest;whiteSpace=wrap;html=1;" vertex="1" parent="UnOarBbT92LB2DLwOyzl-22">
          <mxGeometry y="104" width="140" height="26" as="geometry" />
        </mxCell>
        <mxCell id="UnOarBbT92LB2DLwOyzl-62" value="&lt;div&gt;qualifyID&lt;/div&gt;&lt;div&gt;&lt;br&gt;&lt;/div&gt;" style="text;strokeColor=none;fillColor=none;align=left;verticalAlign=top;spacingLeft=4;spacingRight=4;overflow=hidden;rotatable=0;points=[[0,0.5],[1,0.5]];portConstraint=eastwest;whiteSpace=wrap;html=1;" vertex="1" parent="UnOarBbT92LB2DLwOyzl-22">
          <mxGeometry y="130" width="140" height="26" as="geometry" />
        </mxCell>
        <mxCell id="UnOarBbT92LB2DLwOyzl-63" value="&lt;div&gt;FinalPosition&lt;/div&gt;" style="text;strokeColor=none;fillColor=none;align=left;verticalAlign=top;spacingLeft=4;spacingRight=4;overflow=hidden;rotatable=0;points=[[0,0.5],[1,0.5]];portConstraint=eastwest;whiteSpace=wrap;html=1;" vertex="1" parent="UnOarBbT92LB2DLwOyzl-22">
          <mxGeometry y="156" width="140" height="26" as="geometry" />
        </mxCell>
        <mxCell id="UnOarBbT92LB2DLwOyzl-64" value="RacePoints" style="text;strokeColor=none;fillColor=none;align=left;verticalAlign=top;spacingLeft=4;spacingRight=4;overflow=hidden;rotatable=0;points=[[0,0.5],[1,0.5]];portConstraint=eastwest;whiteSpace=wrap;html=1;" vertex="1" parent="UnOarBbT92LB2DLwOyzl-22">
          <mxGeometry y="182" width="140" height="26" as="geometry" />
        </mxCell>
        <mxCell id="UnOarBbT92LB2DLwOyzl-66" value="FastestLap&lt;div&gt;&lt;br&gt;&lt;/div&gt;" style="text;strokeColor=none;fillColor=none;align=left;verticalAlign=top;spacingLeft=4;spacingRight=4;overflow=hidden;rotatable=0;points=[[0,0.5],[1,0.5]];portConstraint=eastwest;whiteSpace=wrap;html=1;" vertex="1" parent="UnOarBbT92LB2DLwOyzl-22">
          <mxGeometry y="208" width="140" height="26" as="geometry" />
        </mxCell>
        <mxCell id="UnOarBbT92LB2DLwOyzl-26" value="Pit Stops" style="swimlane;fontStyle=0;childLayout=stackLayout;horizontal=1;startSize=30;fillColor=none;horizontalStack=0;resizeParent=1;resizeParentMax=0;resizeLast=0;collapsible=1;marginBottom=0;whiteSpace=wrap;html=1;" vertex="1" parent="1">
          <mxGeometry x="680" y="280" width="140" height="160" as="geometry" />
        </mxCell>
        <mxCell id="UnOarBbT92LB2DLwOyzl-27" value="&lt;u&gt;pitStopID&lt;/u&gt;" style="text;strokeColor=none;fillColor=none;align=left;verticalAlign=top;spacingLeft=4;spacingRight=4;overflow=hidden;rotatable=0;points=[[0,0.5],[1,0.5]];portConstraint=eastwest;whiteSpace=wrap;html=1;" vertex="1" parent="UnOarBbT92LB2DLwOyzl-26">
          <mxGeometry y="30" width="140" height="26" as="geometry" />
        </mxCell>
        <mxCell id="3iwSfKfHBzbwok-7EeIF-79" value="raceID" style="text;strokeColor=none;fillColor=none;align=left;verticalAlign=top;spacingLeft=4;spacingRight=4;overflow=hidden;rotatable=0;points=[[0,0.5],[1,0.5]];portConstraint=eastwest;whiteSpace=wrap;html=1;" vertex="1" parent="UnOarBbT92LB2DLwOyzl-26">
          <mxGeometry y="56" width="140" height="26" as="geometry" />
        </mxCell>
        <mxCell id="UnOarBbT92LB2DLwOyzl-28" value="driverID" style="text;strokeColor=none;fillColor=none;align=left;verticalAlign=top;spacingLeft=4;spacingRight=4;overflow=hidden;rotatable=0;points=[[0,0.5],[1,0.5]];portConstraint=eastwest;whiteSpace=wrap;html=1;" vertex="1" parent="UnOarBbT92LB2DLwOyzl-26">
          <mxGeometry y="82" width="140" height="26" as="geometry" />
        </mxCell>
        <mxCell id="UnOarBbT92LB2DLwOyzl-29" value="StopNumber" style="text;strokeColor=none;fillColor=none;align=left;verticalAlign=top;spacingLeft=4;spacingRight=4;overflow=hidden;rotatable=0;points=[[0,0.5],[1,0.5]];portConstraint=eastwest;whiteSpace=wrap;html=1;" vertex="1" parent="UnOarBbT92LB2DLwOyzl-26">
          <mxGeometry y="108" width="140" height="26" as="geometry" />
        </mxCell>
        <mxCell id="3iwSfKfHBzbwok-7EeIF-1" value="StopDuration" style="text;strokeColor=none;fillColor=none;align=left;verticalAlign=top;spacingLeft=4;spacingRight=4;overflow=hidden;rotatable=0;points=[[0,0.5],[1,0.5]];portConstraint=eastwest;whiteSpace=wrap;html=1;" vertex="1" parent="UnOarBbT92LB2DLwOyzl-26">
          <mxGeometry y="134" width="140" height="26" as="geometry" />
        </mxCell>
        <mxCell id="UnOarBbT92LB2DLwOyzl-30" value="Driver Standings" style="swimlane;fontStyle=0;childLayout=stackLayout;horizontal=1;startSize=26;fillColor=none;horizontalStack=0;resizeParent=1;resizeParentMax=0;resizeLast=0;collapsible=1;marginBottom=0;whiteSpace=wrap;html=1;" vertex="1" parent="1">
          <mxGeometry x="670" y="567" width="140" height="182" as="geometry" />
        </mxCell>
        <mxCell id="UnOarBbT92LB2DLwOyzl-31" value="&lt;u&gt;driverStandingID&lt;/u&gt;&lt;div&gt;&lt;br&gt;&lt;/div&gt;" style="text;strokeColor=none;fillColor=none;align=left;verticalAlign=top;spacingLeft=4;spacingRight=4;overflow=hidden;rotatable=0;points=[[0,0.5],[1,0.5]];portConstraint=eastwest;whiteSpace=wrap;html=1;" vertex="1" parent="UnOarBbT92LB2DLwOyzl-30">
          <mxGeometry y="26" width="140" height="26" as="geometry" />
        </mxCell>
        <mxCell id="3iwSfKfHBzbwok-7EeIF-78" value="&lt;div&gt;raceID&lt;/div&gt;" style="text;strokeColor=none;fillColor=none;align=left;verticalAlign=top;spacingLeft=4;spacingRight=4;overflow=hidden;rotatable=0;points=[[0,0.5],[1,0.5]];portConstraint=eastwest;whiteSpace=wrap;html=1;" vertex="1" parent="UnOarBbT92LB2DLwOyzl-30">
          <mxGeometry y="52" width="140" height="26" as="geometry" />
        </mxCell>
        <mxCell id="UnOarBbT92LB2DLwOyzl-33" value="driverID" style="text;strokeColor=none;fillColor=none;align=left;verticalAlign=top;spacingLeft=4;spacingRight=4;overflow=hidden;rotatable=0;points=[[0,0.5],[1,0.5]];portConstraint=eastwest;whiteSpace=wrap;html=1;" vertex="1" parent="UnOarBbT92LB2DLwOyzl-30">
          <mxGeometry y="78" width="140" height="26" as="geometry" />
        </mxCell>
        <mxCell id="3iwSfKfHBzbwok-7EeIF-2" value="constructorID" style="text;strokeColor=none;fillColor=none;align=left;verticalAlign=top;spacingLeft=4;spacingRight=4;overflow=hidden;rotatable=0;points=[[0,0.5],[1,0.5]];portConstraint=eastwest;whiteSpace=wrap;html=1;" vertex="1" parent="UnOarBbT92LB2DLwOyzl-30">
          <mxGeometry y="104" width="140" height="26" as="geometry" />
        </mxCell>
        <mxCell id="3iwSfKfHBzbwok-7EeIF-3" value="DriverPoints" style="text;strokeColor=none;fillColor=none;align=left;verticalAlign=top;spacingLeft=4;spacingRight=4;overflow=hidden;rotatable=0;points=[[0,0.5],[1,0.5]];portConstraint=eastwest;whiteSpace=wrap;html=1;" vertex="1" parent="UnOarBbT92LB2DLwOyzl-30">
          <mxGeometry y="130" width="140" height="26" as="geometry" />
        </mxCell>
        <mxCell id="3iwSfKfHBzbwok-7EeIF-4" value="DriverPosition" style="text;strokeColor=none;fillColor=none;align=left;verticalAlign=top;spacingLeft=4;spacingRight=4;overflow=hidden;rotatable=0;points=[[0,0.5],[1,0.5]];portConstraint=eastwest;whiteSpace=wrap;html=1;" vertex="1" parent="UnOarBbT92LB2DLwOyzl-30">
          <mxGeometry y="156" width="140" height="26" as="geometry" />
        </mxCell>
        <mxCell id="UnOarBbT92LB2DLwOyzl-34" value="Constructor Standings" style="swimlane;fontStyle=0;childLayout=stackLayout;horizontal=1;startSize=26;fillColor=none;horizontalStack=0;resizeParent=1;resizeParentMax=0;resizeLast=0;collapsible=1;marginBottom=0;whiteSpace=wrap;html=1;" vertex="1" parent="1">
          <mxGeometry x="20" y="567" width="140" height="156" as="geometry" />
        </mxCell>
        <mxCell id="UnOarBbT92LB2DLwOyzl-35" value="&lt;u&gt;constructorStandingID&lt;/u&gt;" style="text;strokeColor=none;fillColor=none;align=left;verticalAlign=top;spacingLeft=4;spacingRight=4;overflow=hidden;rotatable=0;points=[[0,0.5],[1,0.5]];portConstraint=eastwest;whiteSpace=wrap;html=1;" vertex="1" parent="UnOarBbT92LB2DLwOyzl-34">
          <mxGeometry y="26" width="140" height="26" as="geometry" />
        </mxCell>
        <mxCell id="3iwSfKfHBzbwok-7EeIF-77" value="raceID" style="text;strokeColor=none;fillColor=none;align=left;verticalAlign=top;spacingLeft=4;spacingRight=4;overflow=hidden;rotatable=0;points=[[0,0.5],[1,0.5]];portConstraint=eastwest;whiteSpace=wrap;html=1;" vertex="1" parent="UnOarBbT92LB2DLwOyzl-34">
          <mxGeometry y="52" width="140" height="26" as="geometry" />
        </mxCell>
        <mxCell id="UnOarBbT92LB2DLwOyzl-36" value="constructorID" style="text;strokeColor=none;fillColor=none;align=left;verticalAlign=top;spacingLeft=4;spacingRight=4;overflow=hidden;rotatable=0;points=[[0,0.5],[1,0.5]];portConstraint=eastwest;whiteSpace=wrap;html=1;" vertex="1" parent="UnOarBbT92LB2DLwOyzl-34">
          <mxGeometry y="78" width="140" height="26" as="geometry" />
        </mxCell>
        <mxCell id="UnOarBbT92LB2DLwOyzl-37" value="ConstructorPoints" style="text;strokeColor=none;fillColor=none;align=left;verticalAlign=top;spacingLeft=4;spacingRight=4;overflow=hidden;rotatable=0;points=[[0,0.5],[1,0.5]];portConstraint=eastwest;whiteSpace=wrap;html=1;" vertex="1" parent="UnOarBbT92LB2DLwOyzl-34">
          <mxGeometry y="104" width="140" height="26" as="geometry" />
        </mxCell>
        <mxCell id="3iwSfKfHBzbwok-7EeIF-5" value="ConstructorPosition" style="text;strokeColor=none;fillColor=none;align=left;verticalAlign=top;spacingLeft=4;spacingRight=4;overflow=hidden;rotatable=0;points=[[0,0.5],[1,0.5]];portConstraint=eastwest;whiteSpace=wrap;html=1;" vertex="1" parent="UnOarBbT92LB2DLwOyzl-34">
          <mxGeometry y="130" width="140" height="26" as="geometry" />
        </mxCell>
        <mxCell id="3iwSfKfHBzbwok-7EeIF-26" value="" style="endArrow=none;html=1;edgeStyle=orthogonalEdgeStyle;rounded=0;exitX=1.024;exitY=0.105;exitDx=0;exitDy=0;exitPerimeter=0;entryX=-0.023;entryY=-0.007;entryDx=0;entryDy=0;entryPerimeter=0;" edge="1" parent="1" target="UnOarBbT92LB2DLwOyzl-4">
          <mxGeometry relative="1" as="geometry">
            <mxPoint x="360.0799999999999" y="116.18000000000002" as="sourcePoint" />
            <mxPoint x="510" y="116" as="targetPoint" />
            <Array as="points">
              <mxPoint x="360" y="120" />
              <mxPoint x="517" y="120" />
            </Array>
          </mxGeometry>
        </mxCell>
        <mxCell id="3iwSfKfHBzbwok-7EeIF-27" value="1..1" style="edgeLabel;resizable=0;html=1;align=left;verticalAlign=bottom;" connectable="0" vertex="1" parent="3iwSfKfHBzbwok-7EeIF-26">
          <mxGeometry x="-1" relative="1" as="geometry">
            <mxPoint y="4" as="offset" />
          </mxGeometry>
        </mxCell>
        <mxCell id="3iwSfKfHBzbwok-7EeIF-28" value="1..*" style="edgeLabel;resizable=0;html=1;align=right;verticalAlign=bottom;" connectable="0" vertex="1" parent="3iwSfKfHBzbwok-7EeIF-26">
          <mxGeometry x="1" relative="1" as="geometry" />
        </mxCell>
        <mxCell id="3iwSfKfHBzbwok-7EeIF-29" value="" style="endArrow=none;html=1;rounded=0;entryX=0;entryY=0.5;entryDx=0;entryDy=0;" edge="1" parent="1" target="UnOarBbT92LB2DLwOyzl-58">
          <mxGeometry relative="1" as="geometry">
            <mxPoint x="160" y="377" as="sourcePoint" />
            <mxPoint x="290" y="377" as="targetPoint" />
          </mxGeometry>
        </mxCell>
        <mxCell id="3iwSfKfHBzbwok-7EeIF-31" value="1..1" style="resizable=0;html=1;whiteSpace=wrap;align=right;verticalAlign=bottom;" connectable="0" vertex="1" parent="3iwSfKfHBzbwok-7EeIF-29">
          <mxGeometry x="1" relative="1" as="geometry" />
        </mxCell>
        <mxCell id="3iwSfKfHBzbwok-7EeIF-32" value="1..1" style="resizable=0;html=1;whiteSpace=wrap;align=right;verticalAlign=bottom;" connectable="0" vertex="1" parent="1">
          <mxGeometry x="189.9982352941178" y="377" as="geometry" />
        </mxCell>
        <mxCell id="3iwSfKfHBzbwok-7EeIF-33" value="&lt;div style=&quot;text-align: center;&quot;&gt;qualifies for&lt;/div&gt;&lt;div&gt;&lt;br&gt;&lt;/div&gt;" style="resizable=0;html=1;whiteSpace=wrap;align=right;verticalAlign=bottom;" connectable="0" vertex="1" parent="1">
          <mxGeometry x="249.99823529411776" y="390" as="geometry" />
        </mxCell>
        <mxCell id="3iwSfKfHBzbwok-7EeIF-34" value="hosts" style="edgeLabel;resizable=0;html=1;align=left;verticalAlign=bottom;" connectable="0" vertex="1" parent="1">
          <mxGeometry x="429.9999999999997" y="118.00000000000006" as="geometry" />
        </mxCell>
        <mxCell id="3iwSfKfHBzbwok-7EeIF-39" value="" style="endArrow=none;html=1;rounded=0;entryX=0.5;entryY=0;entryDx=0;entryDy=0;" edge="1" parent="1" target="UnOarBbT92LB2DLwOyzl-22">
          <mxGeometry relative="1" as="geometry">
            <mxPoint x="520" y="160" as="sourcePoint" />
            <mxPoint x="490" y="340" as="targetPoint" />
            <Array as="points" />
          </mxGeometry>
        </mxCell>
        <mxCell id="3iwSfKfHBzbwok-7EeIF-40" value="" style="resizable=0;html=1;whiteSpace=wrap;align=left;verticalAlign=bottom;" connectable="0" vertex="1" parent="3iwSfKfHBzbwok-7EeIF-39">
          <mxGeometry x="-1" relative="1" as="geometry" />
        </mxCell>
        <mxCell id="3iwSfKfHBzbwok-7EeIF-41" value="1..*" style="resizable=0;html=1;whiteSpace=wrap;align=right;verticalAlign=bottom;" connectable="0" vertex="1" parent="3iwSfKfHBzbwok-7EeIF-39">
          <mxGeometry x="1" relative="1" as="geometry">
            <mxPoint x="30" as="offset" />
          </mxGeometry>
        </mxCell>
        <mxCell id="3iwSfKfHBzbwok-7EeIF-42" value="1..1" style="resizable=0;html=1;whiteSpace=wrap;align=right;verticalAlign=bottom;" connectable="0" vertex="1" parent="1">
          <mxGeometry x="510" y="230" as="geometry">
            <mxPoint x="9" y="-27" as="offset" />
          </mxGeometry>
        </mxCell>
        <mxCell id="3iwSfKfHBzbwok-7EeIF-43" value="&lt;div&gt;&lt;br&gt;&lt;/div&gt;" style="resizable=0;html=1;whiteSpace=wrap;align=right;verticalAlign=bottom;" connectable="0" vertex="1" parent="1">
          <mxGeometry x="490" y="280" as="geometry">
            <mxPoint x="9" y="-27" as="offset" />
          </mxGeometry>
        </mxCell>
        <mxCell id="3iwSfKfHBzbwok-7EeIF-50" value="" style="resizable=0;html=1;whiteSpace=wrap;align=left;verticalAlign=bottom;" connectable="0" vertex="1" parent="1">
          <mxGeometry x="179.99999999999977" y="320" as="geometry">
            <mxPoint x="112" y="-85" as="offset" />
          </mxGeometry>
        </mxCell>
        <mxCell id="3iwSfKfHBzbwok-7EeIF-51" value="" style="endArrow=none;html=1;rounded=0;exitX=0.5;exitY=0;exitDx=0;exitDy=0;" edge="1" parent="1" source="UnOarBbT92LB2DLwOyzl-14">
          <mxGeometry relative="1" as="geometry">
            <mxPoint x="330" y="380" as="sourcePoint" />
            <mxPoint x="360" y="480" as="targetPoint" />
            <Array as="points">
              <mxPoint x="290" y="480" />
            </Array>
          </mxGeometry>
        </mxCell>
        <mxCell id="3iwSfKfHBzbwok-7EeIF-52" value="1..1" style="resizable=0;html=1;whiteSpace=wrap;align=left;verticalAlign=bottom;" connectable="0" vertex="1" parent="3iwSfKfHBzbwok-7EeIF-51">
          <mxGeometry x="-1" relative="1" as="geometry">
            <mxPoint y="-7" as="offset" />
          </mxGeometry>
        </mxCell>
        <mxCell id="3iwSfKfHBzbwok-7EeIF-53" value="1...*" style="resizable=0;html=1;whiteSpace=wrap;align=right;verticalAlign=bottom;" connectable="0" vertex="1" parent="3iwSfKfHBzbwok-7EeIF-51">
          <mxGeometry x="1" relative="1" as="geometry">
            <mxPoint as="offset" />
          </mxGeometry>
        </mxCell>
        <mxCell id="3iwSfKfHBzbwok-7EeIF-54" value="" style="endArrow=none;html=1;rounded=0;entryX=1;entryY=0.5;entryDx=0;entryDy=0;" edge="1" parent="1" target="UnOarBbT92LB2DLwOyzl-64">
          <mxGeometry relative="1" as="geometry">
            <mxPoint x="560" y="569" as="sourcePoint" />
            <mxPoint x="540" y="430" as="targetPoint" />
            <Array as="points">
              <mxPoint x="560" y="530" />
              <mxPoint x="560" y="455" />
            </Array>
          </mxGeometry>
        </mxCell>
        <mxCell id="3iwSfKfHBzbwok-7EeIF-55" value="1..1" style="resizable=0;html=1;whiteSpace=wrap;align=left;verticalAlign=bottom;" connectable="0" vertex="1" parent="3iwSfKfHBzbwok-7EeIF-54">
          <mxGeometry x="-1" relative="1" as="geometry">
            <mxPoint x="-30" y="-9" as="offset" />
          </mxGeometry>
        </mxCell>
        <mxCell id="3iwSfKfHBzbwok-7EeIF-56" value="1..*" style="resizable=0;html=1;whiteSpace=wrap;align=right;verticalAlign=bottom;" connectable="0" vertex="1" parent="3iwSfKfHBzbwok-7EeIF-54">
          <mxGeometry x="1" relative="1" as="geometry">
            <mxPoint x="30" y="-5" as="offset" />
          </mxGeometry>
        </mxCell>
        <mxCell id="3iwSfKfHBzbwok-7EeIF-57" value="" style="endArrow=none;html=1;rounded=0;exitX=0.45;exitY=1.154;exitDx=0;exitDy=0;entryX=0.214;entryY=1.077;entryDx=0;entryDy=0;exitPerimeter=0;entryPerimeter=0;" edge="1" parent="1" source="3iwSfKfHBzbwok-7EeIF-5" target="UnOarBbT92LB2DLwOyzl-17">
          <mxGeometry relative="1" as="geometry">
            <mxPoint x="310" y="470" as="sourcePoint" />
            <mxPoint x="470" y="470" as="targetPoint" />
            <Array as="points">
              <mxPoint x="83" y="760" />
              <mxPoint x="250" y="760" />
            </Array>
          </mxGeometry>
        </mxCell>
        <mxCell id="3iwSfKfHBzbwok-7EeIF-58" value="1..*" style="resizable=0;html=1;whiteSpace=wrap;align=left;verticalAlign=bottom;" connectable="0" vertex="1" parent="3iwSfKfHBzbwok-7EeIF-57">
          <mxGeometry x="-1" relative="1" as="geometry">
            <mxPoint y="12" as="offset" />
          </mxGeometry>
        </mxCell>
        <mxCell id="3iwSfKfHBzbwok-7EeIF-59" value="1..1" style="resizable=0;html=1;whiteSpace=wrap;align=right;verticalAlign=bottom;" connectable="0" vertex="1" parent="3iwSfKfHBzbwok-7EeIF-57">
          <mxGeometry x="1" relative="1" as="geometry">
            <mxPoint y="17" as="offset" />
          </mxGeometry>
        </mxCell>
        <mxCell id="3iwSfKfHBzbwok-7EeIF-60" value="contains&lt;div&gt;&lt;br&gt;&lt;/div&gt;" style="resizable=0;html=1;whiteSpace=wrap;align=right;verticalAlign=bottom;" connectable="0" vertex="1" parent="1">
          <mxGeometry x="519.9990339130338" y="250.00120760870783" as="geometry" />
        </mxCell>
        <mxCell id="3iwSfKfHBzbwok-7EeIF-69" value="represents" style="resizable=0;html=1;whiteSpace=wrap;align=right;verticalAlign=bottom;" connectable="0" vertex="1" parent="1">
          <mxGeometry x="349.99717316427433" y="520" as="geometry" />
        </mxCell>
        <mxCell id="3iwSfKfHBzbwok-7EeIF-70" value="achieved by" style="resizable=0;html=1;whiteSpace=wrap;align=center;verticalAlign=bottom;" connectable="0" vertex="1" parent="1">
          <mxGeometry x="550" y="567" as="geometry">
            <mxPoint x="-18" y="-38" as="offset" />
          </mxGeometry>
        </mxCell>
        <mxCell id="3iwSfKfHBzbwok-7EeIF-74" value="" style="endArrow=none;html=1;rounded=0;entryX=0.493;entryY=1.115;entryDx=0;entryDy=0;entryPerimeter=0;exitX=0.357;exitY=1.038;exitDx=0;exitDy=0;exitPerimeter=0;" edge="1" parent="1" source="3iwSfKfHBzbwok-7EeIF-4" target="UnOarBbT92LB2DLwOyzl-50">
          <mxGeometry relative="1" as="geometry">
            <mxPoint x="660" y="640" as="sourcePoint" />
            <mxPoint x="600" y="644.01" as="targetPoint" />
            <Array as="points">
              <mxPoint x="720" y="780" />
              <mxPoint x="520" y="780" />
            </Array>
          </mxGeometry>
        </mxCell>
        <mxCell id="3iwSfKfHBzbwok-7EeIF-75" value="1..*" style="resizable=0;html=1;whiteSpace=wrap;align=left;verticalAlign=bottom;" connectable="0" vertex="1" parent="3iwSfKfHBzbwok-7EeIF-74">
          <mxGeometry x="-1" relative="1" as="geometry">
            <mxPoint x="-21" y="20" as="offset" />
          </mxGeometry>
        </mxCell>
        <mxCell id="3iwSfKfHBzbwok-7EeIF-76" value="1..1" style="resizable=0;html=1;whiteSpace=wrap;align=right;verticalAlign=bottom;" connectable="0" vertex="1" parent="3iwSfKfHBzbwok-7EeIF-74">
          <mxGeometry x="1" relative="1" as="geometry">
            <mxPoint x="26" y="20" as="offset" />
          </mxGeometry>
        </mxCell>
        <mxCell id="ixUIfLyjpuufvcpNDH6X-1" value="" style="endArrow=none;html=1;rounded=0;entryX=1;entryY=0;entryDx=0;entryDy=0;" edge="1" parent="1" target="UnOarBbT92LB2DLwOyzl-10">
          <mxGeometry relative="1" as="geometry">
            <mxPoint x="740" y="443" as="sourcePoint" />
            <mxPoint x="740" y="560" as="targetPoint" />
          </mxGeometry>
        </mxCell>
        <mxCell id="ixUIfLyjpuufvcpNDH6X-2" value="1..*" style="resizable=0;html=1;whiteSpace=wrap;align=left;verticalAlign=bottom;" connectable="0" vertex="1" parent="ixUIfLyjpuufvcpNDH6X-1">
          <mxGeometry x="-1" relative="1" as="geometry">
            <mxPoint y="17" as="offset" />
          </mxGeometry>
        </mxCell>
        <mxCell id="ixUIfLyjpuufvcpNDH6X-3" value="1..1" style="resizable=0;html=1;whiteSpace=wrap;align=right;verticalAlign=bottom;" connectable="0" vertex="1" parent="ixUIfLyjpuufvcpNDH6X-1">
          <mxGeometry x="1" relative="1" as="geometry">
            <mxPoint x="30" y="13" as="offset" />
          </mxGeometry>
        </mxCell>
        <mxCell id="ixUIfLyjpuufvcpNDH6X-4" value="" style="endArrow=none;html=1;rounded=0;exitX=0.429;exitY=1.115;exitDx=0;exitDy=0;exitPerimeter=0;entryX=0;entryY=0;entryDx=0;entryDy=0;" edge="1" parent="1" source="UnOarBbT92LB2DLwOyzl-60" target="UnOarBbT92LB2DLwOyzl-14">
          <mxGeometry relative="1" as="geometry">
            <mxPoint x="340" y="500" as="sourcePoint" />
            <mxPoint x="500" y="500" as="targetPoint" />
            <Array as="points">
              <mxPoint x="150" y="530" />
            </Array>
          </mxGeometry>
        </mxCell>
        <mxCell id="ixUIfLyjpuufvcpNDH6X-5" value="1..*" style="resizable=0;html=1;whiteSpace=wrap;align=left;verticalAlign=bottom;" connectable="0" vertex="1" parent="ixUIfLyjpuufvcpNDH6X-4">
          <mxGeometry x="-1" relative="1" as="geometry">
            <mxPoint x="20" y="13" as="offset" />
          </mxGeometry>
        </mxCell>
        <mxCell id="ixUIfLyjpuufvcpNDH6X-6" value="1..1" style="resizable=0;html=1;whiteSpace=wrap;align=right;verticalAlign=bottom;" connectable="0" vertex="1" parent="ixUIfLyjpuufvcpNDH6X-4">
          <mxGeometry x="1" relative="1" as="geometry">
            <mxPoint x="20" y="-7" as="offset" />
          </mxGeometry>
        </mxCell>
        <mxCell id="ixUIfLyjpuufvcpNDH6X-7" value="" style="endArrow=none;html=1;rounded=0;entryX=-0.007;entryY=0.808;entryDx=0;entryDy=0;entryPerimeter=0;" edge="1" parent="1" target="UnOarBbT92LB2DLwOyzl-4">
          <mxGeometry relative="1" as="geometry">
            <mxPoint x="120" y="565" as="sourcePoint" />
            <mxPoint x="360" y="190" as="targetPoint" />
            <Array as="points">
              <mxPoint x="120" y="520" />
              <mxPoint x="180" y="520" />
              <mxPoint x="270" y="520" />
              <mxPoint x="270" y="220" />
              <mxPoint x="370" y="220" />
              <mxPoint x="400" y="220" />
              <mxPoint x="400" y="190" />
              <mxPoint x="400" y="140" />
              <mxPoint x="490" y="140" />
            </Array>
          </mxGeometry>
        </mxCell>
        <mxCell id="ixUIfLyjpuufvcpNDH6X-8" value="1..*" style="resizable=0;html=1;whiteSpace=wrap;align=left;verticalAlign=bottom;" connectable="0" vertex="1" parent="ixUIfLyjpuufvcpNDH6X-7">
          <mxGeometry x="-1" relative="1" as="geometry">
            <mxPoint x="-20" as="offset" />
          </mxGeometry>
        </mxCell>
        <mxCell id="ixUIfLyjpuufvcpNDH6X-9" value="1..1" style="resizable=0;html=1;whiteSpace=wrap;align=right;verticalAlign=bottom;" connectable="0" vertex="1" parent="ixUIfLyjpuufvcpNDH6X-7">
          <mxGeometry x="1" relative="1" as="geometry">
            <mxPoint x="-9" y="19" as="offset" />
          </mxGeometry>
        </mxCell>
        <mxCell id="ixUIfLyjpuufvcpNDH6X-10" value="" style="endArrow=none;html=1;rounded=0;entryX=0.329;entryY=-0.011;entryDx=0;entryDy=0;entryPerimeter=0;exitX=0.836;exitY=1.115;exitDx=0;exitDy=0;exitPerimeter=0;" edge="1" parent="1" source="UnOarBbT92LB2DLwOyzl-65">
          <mxGeometry relative="1" as="geometry">
            <mxPoint x="625" y="200" as="sourcePoint" />
            <mxPoint x="716.06" y="566.008" as="targetPoint" />
            <Array as="points">
              <mxPoint x="640" y="391.01" />
              <mxPoint x="640" y="481.01" />
              <mxPoint x="640" y="541.01" />
              <mxPoint x="716" y="541.01" />
            </Array>
          </mxGeometry>
        </mxCell>
        <mxCell id="ixUIfLyjpuufvcpNDH6X-11" value="1..1" style="resizable=0;html=1;whiteSpace=wrap;align=left;verticalAlign=bottom;" connectable="0" vertex="1" parent="ixUIfLyjpuufvcpNDH6X-10">
          <mxGeometry x="-1" relative="1" as="geometry">
            <mxPoint x="5" y="21" as="offset" />
          </mxGeometry>
        </mxCell>
        <mxCell id="ixUIfLyjpuufvcpNDH6X-12" value="1...*" style="resizable=0;html=1;whiteSpace=wrap;align=right;verticalAlign=bottom;" connectable="0" vertex="1" parent="ixUIfLyjpuufvcpNDH6X-10">
          <mxGeometry x="1" relative="1" as="geometry">
            <mxPoint x="24" y="-6" as="offset" />
          </mxGeometry>
        </mxCell>
        <mxCell id="ixUIfLyjpuufvcpNDH6X-13" value="" style="endArrow=none;html=1;rounded=0;entryX=0;entryY=0.5;entryDx=0;entryDy=0;" edge="1" parent="1" target="3iwSfKfHBzbwok-7EeIF-4">
          <mxGeometry relative="1" as="geometry">
            <mxPoint x="280" y="675" as="sourcePoint" />
            <mxPoint x="660" y="720" as="targetPoint" />
            <Array as="points">
              <mxPoint x="280" y="736" />
            </Array>
          </mxGeometry>
        </mxCell>
        <mxCell id="ixUIfLyjpuufvcpNDH6X-14" value="1..1" style="resizable=0;html=1;whiteSpace=wrap;align=left;verticalAlign=bottom;" connectable="0" vertex="1" parent="ixUIfLyjpuufvcpNDH6X-13">
          <mxGeometry x="-1" relative="1" as="geometry">
            <mxPoint y="15" as="offset" />
          </mxGeometry>
        </mxCell>
        <mxCell id="ixUIfLyjpuufvcpNDH6X-15" value="1..*" style="resizable=0;html=1;whiteSpace=wrap;align=right;verticalAlign=bottom;" connectable="0" vertex="1" parent="ixUIfLyjpuufvcpNDH6X-13">
          <mxGeometry x="1" relative="1" as="geometry">
            <mxPoint x="-10" as="offset" />
          </mxGeometry>
        </mxCell>
        <mxCell id="ixUIfLyjpuufvcpNDH6X-16" value="" style="endArrow=none;html=1;rounded=0;exitX=1.014;exitY=-0.077;exitDx=0;exitDy=0;exitPerimeter=0;entryX=0.571;entryY=0;entryDx=0;entryDy=0;entryPerimeter=0;" edge="1" parent="1" source="UnOarBbT92LB2DLwOyzl-47" target="UnOarBbT92LB2DLwOyzl-26">
          <mxGeometry relative="1" as="geometry">
            <mxPoint x="320" y="400" as="sourcePoint" />
            <mxPoint x="480" y="400" as="targetPoint" />
          </mxGeometry>
        </mxCell>
        <mxCell id="ixUIfLyjpuufvcpNDH6X-17" value="1...1" style="resizable=0;html=1;whiteSpace=wrap;align=left;verticalAlign=bottom;" connectable="0" vertex="1" parent="ixUIfLyjpuufvcpNDH6X-16">
          <mxGeometry x="-1" relative="1" as="geometry">
            <mxPoint x="8" y="8" as="offset" />
          </mxGeometry>
        </mxCell>
        <mxCell id="ixUIfLyjpuufvcpNDH6X-18" value="1..*" style="resizable=0;html=1;whiteSpace=wrap;align=right;verticalAlign=bottom;" connectable="0" vertex="1" parent="ixUIfLyjpuufvcpNDH6X-16">
          <mxGeometry x="1" relative="1" as="geometry">
            <mxPoint x="20" as="offset" />
          </mxGeometry>
        </mxCell>
        <mxCell id="ixUIfLyjpuufvcpNDH6X-19" value="" style="endArrow=none;html=1;rounded=0;exitX=1.007;exitY=0.808;exitDx=0;exitDy=0;exitPerimeter=0;" edge="1" parent="1" source="UnOarBbT92LB2DLwOyzl-56">
          <mxGeometry relative="1" as="geometry">
            <mxPoint x="170" y="427" as="sourcePoint" />
            <mxPoint x="460" y="567" as="targetPoint" />
            <Array as="points">
              <mxPoint x="330" y="427" />
              <mxPoint x="330" y="500" />
              <mxPoint x="390" y="500" />
              <mxPoint x="460" y="500" />
            </Array>
          </mxGeometry>
        </mxCell>
        <mxCell id="ixUIfLyjpuufvcpNDH6X-20" value="1..*" style="resizable=0;html=1;whiteSpace=wrap;align=left;verticalAlign=bottom;" connectable="0" vertex="1" parent="ixUIfLyjpuufvcpNDH6X-19">
          <mxGeometry x="-1" relative="1" as="geometry">
            <mxPoint x="-1" as="offset" />
          </mxGeometry>
        </mxCell>
        <mxCell id="ixUIfLyjpuufvcpNDH6X-21" value="1..1" style="resizable=0;html=1;whiteSpace=wrap;align=right;verticalAlign=bottom;" connectable="0" vertex="1" parent="ixUIfLyjpuufvcpNDH6X-19">
          <mxGeometry x="1" relative="1" as="geometry">
            <mxPoint y="-7" as="offset" />
          </mxGeometry>
        </mxCell>
        <mxCell id="ixUIfLyjpuufvcpNDH6X-22" value="" style="endArrow=none;html=1;rounded=0;exitX=0.436;exitY=-0.017;exitDx=0;exitDy=0;exitPerimeter=0;entryX=0.571;entryY=0;entryDx=0;entryDy=0;entryPerimeter=0;" edge="1" parent="1" source="UnOarBbT92LB2DLwOyzl-18" target="UnOarBbT92LB2DLwOyzl-1">
          <mxGeometry relative="1" as="geometry">
            <mxPoint x="80" y="200" as="sourcePoint" />
            <mxPoint x="600" y="20" as="targetPoint" />
            <Array as="points">
              <mxPoint x="80" y="20" />
              <mxPoint x="600" y="20" />
            </Array>
          </mxGeometry>
        </mxCell>
        <mxCell id="ixUIfLyjpuufvcpNDH6X-23" value="1..*" style="resizable=0;html=1;whiteSpace=wrap;align=left;verticalAlign=bottom;" connectable="0" vertex="1" parent="ixUIfLyjpuufvcpNDH6X-22">
          <mxGeometry x="-1" relative="1" as="geometry">
            <mxPoint x="9" as="offset" />
          </mxGeometry>
        </mxCell>
        <mxCell id="ixUIfLyjpuufvcpNDH6X-24" value="1..1" style="resizable=0;html=1;whiteSpace=wrap;align=right;verticalAlign=bottom;" connectable="0" vertex="1" parent="ixUIfLyjpuufvcpNDH6X-22">
          <mxGeometry x="1" relative="1" as="geometry" />
        </mxCell>
        <mxCell id="ixUIfLyjpuufvcpNDH6X-25" value="includes" style="resizable=0;html=1;whiteSpace=wrap;align=left;verticalAlign=bottom;" connectable="0" vertex="1" parent="1">
          <mxGeometry x="700" y="195.99800000000005" as="geometry" />
        </mxCell>
        <mxCell id="ixUIfLyjpuufvcpNDH6X-26" value="contains" style="resizable=0;html=1;whiteSpace=wrap;align=left;verticalAlign=bottom;" connectable="0" vertex="1" parent="1">
          <mxGeometry x="89.99999999999997" y="40.00200000000004" as="geometry" />
        </mxCell>
        <mxCell id="ixUIfLyjpuufvcpNDH6X-27" value="qualifies in" style="resizable=0;html=1;whiteSpace=wrap;align=center;verticalAlign=bottom;" connectable="0" vertex="1" parent="1">
          <mxGeometry x="240" y="419.99800000000005" as="geometry">
            <mxPoint x="-9" y="6" as="offset" />
          </mxGeometry>
        </mxCell>
        <mxCell id="ixUIfLyjpuufvcpNDH6X-28" value="performed by" style="resizable=0;html=1;whiteSpace=wrap;align=center;verticalAlign=bottom;" connectable="0" vertex="1" parent="1">
          <mxGeometry x="710" y="520" as="geometry" />
        </mxCell>
        <mxCell id="ixUIfLyjpuufvcpNDH6X-30" value="ranks in" style="resizable=0;html=1;whiteSpace=wrap;align=center;verticalAlign=bottom;" connectable="0" vertex="1" parent="1">
          <mxGeometry x="560.0003430316985" y="779.9980060879675" as="geometry" />
        </mxCell>
        <mxCell id="ixUIfLyjpuufvcpNDH6X-31" value="&lt;div style=&quot;text-align: center;&quot;&gt;ranks in&lt;/div&gt;&lt;div&gt;&lt;br&gt;&lt;/div&gt;" style="resizable=0;html=1;whiteSpace=wrap;align=left;verticalAlign=bottom;" connectable="0" vertex="1" parent="1">
          <mxGeometry x="210" y="770.0039999999999" as="geometry" />
        </mxCell>
        <mxCell id="ixUIfLyjpuufvcpNDH6X-32" value="ranks in" style="resizable=0;html=1;whiteSpace=wrap;align=center;verticalAlign=bottom;" connectable="0" vertex="1" parent="1">
          <mxGeometry x="340" y="730" as="geometry" />
        </mxCell>
        <mxCell id="ixUIfLyjpuufvcpNDH6X-33" value="&lt;div style=&quot;&quot;&gt;qualifies in&lt;/div&gt;" style="resizable=0;html=1;whiteSpace=wrap;align=center;verticalAlign=bottom;" connectable="0" vertex="1" parent="1">
          <mxGeometry x="179.99941761975538" y="566.9975493132994" as="geometry">
            <mxPoint x="4" y="7" as="offset" />
          </mxGeometry>
        </mxCell>
        <mxCell id="ixUIfLyjpuufvcpNDH6X-34" value="contributes to" style="resizable=0;html=1;whiteSpace=wrap;align=center;verticalAlign=bottom;" connectable="0" vertex="1" parent="1">
          <mxGeometry x="600" y="350" as="geometry" />
        </mxCell>
        <mxCell id="ixUIfLyjpuufvcpNDH6X-35" value="contributes to" style="resizable=0;html=1;whiteSpace=wrap;align=center;verticalAlign=bottom;" connectable="0" vertex="1" parent="1">
          <mxGeometry x="250" y="230" as="geometry" />
        </mxCell>
      </root>
    </mxGraphModel>
  </diagram>
</mxfile>
